<svg elementtiming="1" width="48" height="48" viewBox="0 0 16 16" fill="none" xmlns="http://www.w3.org/2000/svg"><rect elementtiming="1" width="16" height="16"></rect><path elementtiming="1" fill-rule="evenodd" clip-rule="evenodd" d="M4.4686 8.76465L4.4686 7.23569L11.3048 7.23569L11.3048 8.76465L4.4686 8.76465Z" fill="#EF6950"></path><path elementtiming="1" fill-rule="evenodd" clip-rule="evenodd" d="M3.5 5.00107L3.5 11.4011C3.5 11.8516 3.79408 12.0017 3.88976 12.0974L5.2736 13.0939L6.25533 13.7549L6.46803 13.7549L7.07024 12.5787L5.03728 11.1447L5.03728 5.00107L3.5 5.00107Z" fill="#428000"></path><path elementtiming="1" fill-rule="evenodd" clip-rule="evenodd" d="M6.4686 3.76465L6.4686 2.23569L11.3048 2.23569L11.3048 3.76465L6.4686 3.76465Z" fill="#428000"></path><path elementtiming="1" fill-rule="evenodd" clip-rule="evenodd" d="M6.4686 13.7646L6.4686 12.2357L11.3048 12.2357L11.3048 13.7646L6.4686 13.7646Z" fill="#428000"></path><path elementtiming="1" fill-rule="evenodd" clip-rule="evenodd" d="M1.99985 1.82646L1.99985 4.17462C2.00078 4.50023 2.13054 4.81224 2.36078 5.04248C2.59102 5.27273 2.90304 5.40249 3.22865 5.40342H5.35825C5.68386 5.40249 5.99587 5.27273 6.22611 5.04248C6.45636 4.81224 6.58612 4.50023 6.58705 4.17462V1.82646C6.58612 1.50084 6.45636 1.18883 6.22611 0.95859C5.99587 0.728346 5.68386 0.598585 5.35825 0.597656L3.22865 0.597656C2.90304 0.598585 2.59102 0.728346 2.36078 0.95859C2.13054 1.18883 2.00078 1.50084 1.99985 1.82646ZM5.27633 1.68982C5.33424 1.68998 5.38973 1.71307 5.43069 1.75402C5.47164 1.79497 5.49472 1.85046 5.49489 1.90838V4.0927C5.49472 4.15061 5.47164 4.2061 5.43069 4.24706C5.38973 4.28801 5.33424 4.31109 5.27633 4.31126H3.31057C3.19057 4.31126 3.09201 4.21302 3.09201 4.0927L3.09201 1.90838C3.09201 1.78838 3.19025 1.68982 3.31057 1.68982L5.27633 1.68982ZM11.6968 15.0005H13.1714C13.497 14.9996 13.809 14.8698 14.0392 14.6396C14.2695 14.4094 14.3992 14.0973 14.4002 13.7717L14.4002 12.2972C14.3992 11.9716 14.2695 11.6596 14.0392 11.4293C13.809 11.1991 13.497 11.0693 13.1714 11.0684H11.6968C11.3712 11.0693 11.0592 11.1991 10.8289 11.4293C10.5987 11.6596 10.4689 11.9716 10.468 12.2972L10.468 13.7717C10.4689 14.0973 10.5987 14.4094 10.8289 14.6396C11.0592 14.8698 11.3712 14.9996 11.6968 15.0005ZM11.7787 13.9084C11.6587 13.9084 11.5602 13.8101 11.5602 13.6898L11.5602 12.3791C11.5602 12.2591 11.6584 12.1605 11.7787 12.1605H13.0894C13.1474 12.1607 13.2029 12.1838 13.2438 12.2247C13.2848 12.2657 13.3078 12.3212 13.308 12.3791L13.308 13.6898C13.3078 13.7477 13.2848 13.8032 13.2438 13.8442C13.2029 13.8851 13.1474 13.9082 13.0894 13.9084H11.7787ZM10.468 7.22934V8.7039C10.4689 9.02951 10.5987 9.34152 10.8289 9.57176C11.0592 9.80201 11.3712 9.93177 11.6968 9.9327H13.1714C13.497 9.93177 13.809 9.80201 14.0392 9.57176C14.2695 9.34152 14.3992 9.02951 14.4002 8.7039V7.22934C14.3992 6.90372 14.2695 6.59171 14.0392 6.36147C13.809 6.13123 13.497 6.00146 13.1714 6.00054H11.6968C11.3712 6.00146 11.0592 6.13123 10.8289 6.36147C10.5987 6.59171 10.4689 6.90372 10.468 7.22934ZM13.0891 7.0927C13.147 7.09286 13.2025 7.11595 13.2435 7.1569C13.2844 7.19785 13.3075 7.25334 13.3077 7.31126V8.62198C13.3075 8.67989 13.2844 8.73538 13.2435 8.77633C13.2025 8.81729 13.147 8.84037 13.0891 8.84054H11.7784C11.6584 8.84054 11.5598 8.7423 11.5598 8.62198V7.31126C11.5598 7.19126 11.6581 7.0927 11.7784 7.0927H13.0891Z" fill="#57A300"></path><path elementtiming="1" fill-rule="evenodd" clip-rule="evenodd" d="M10.468 2.22934V3.7039C10.4689 4.02951 10.5987 4.34152 10.8289 4.57176C11.0592 4.80201 11.3712 4.93177 11.6968 4.9327H13.1714C13.497 4.93177 13.809 4.80201 14.0392 4.57176C14.2695 4.34152 14.3992 4.02951 14.4002 3.7039V2.22934C14.3992 1.90372 14.2695 1.59171 14.0392 1.36147C13.809 1.13123 13.497 1.00147 13.1714 1.00054L11.6968 1.00054C11.3712 1.00147 11.0592 1.13123 10.8289 1.36147C10.5987 1.59171 10.4689 1.90373 10.468 2.22934ZM13.2435 2.1569C13.2025 2.11595 13.147 2.09287 13.0891 2.0927L11.7784 2.0927C11.6581 2.0927 11.5598 2.19126 11.5598 2.31126V3.62198C11.5598 3.7423 11.6584 3.84054 11.7784 3.84054H13.0891C13.147 3.84037 13.2025 3.81729 13.2435 3.77634C13.2844 3.73538 13.3075 3.67989 13.3077 3.62198V2.31126C13.3075 2.25334 13.2844 2.19785 13.2435 2.1569Z" fill="#57A300"></path><path elementtiming="1" fill-rule="evenodd" clip-rule="evenodd" d="M10.468 7.26298V8.73754C10.4689 9.06315 10.5987 9.37516 10.829 9.60541C11.0592 9.83565 11.3712 9.96541 11.6968 9.96634H13.1714C13.497 9.96541 13.809 9.83565 14.0392 9.60541C14.2695 9.37516 14.3992 9.06315 14.4002 8.73754V7.26298C14.3992 6.93737 14.2695 6.62536 14.0392 6.39511C13.809 6.16487 13.497 6.03511 13.1714 6.03418L11.6968 6.03418C11.3712 6.03511 11.0592 6.16487 10.829 6.39511C10.5987 6.62536 10.4689 6.93737 10.468 7.26298ZM13.2435 7.19054C13.2025 7.14959 13.1471 7.12651 13.0891 7.12634L11.7784 7.12634C11.6581 7.12634 11.5599 7.2249 11.5599 7.3449V8.65562C11.5599 8.77594 11.6584 8.87418 11.7784 8.87418H13.0891C13.1471 8.87401 13.2025 8.85093 13.2435 8.80998C13.2844 8.76903 13.3075 8.71353 13.3077 8.65562V7.3449C13.3075 7.28699 13.2844 7.23149 13.2435 7.19054Z" fill="#A4262C"></path></svg>
